<svg xmlns="http://www.w3.org/2000/svg" viewBox="0 0 33.3 39.49"><defs><style>.cls-1{fill:#fff;}</style></defs><title>sindicato</title><g id="Camada_2" data-name="Camada 2"><g id="Camada_1-2" data-name="Camada 1"><path class="cls-1" d="M33.22,17.76a1.16,1.16,0,0,0-.07-1q-3-6-6-12a1,1,0,0,0-.39-.38C23.86,3,21,1.61,18.15.19a1.34,1.34,0,0,0-1.5.09.52.52,0,0,0-.28.51c0,.53.06,1.06.08,1.59A.7.7,0,0,1,16,3.1a.69.69,0,0,0-.29.42c-.1.5-.14,1-.2,1.5-.36.09-.64.44-1.06.3,0,0-.11.06-.16.11a.93.93,0,0,1-.73.32c-.24,0-.54,0-.6.35a.93.93,0,0,1-.41.57c-.31.21-.62.44-.91.67a.42.42,0,0,1-.54.07c-.24-.13-.5-.18-.67.13-.19-.09-.37-.25-.47-.21a9.78,9.78,0,0,0-1,.52,2,2,0,0,1-.5.22,1.28,1.28,0,0,0-.93.59c-1.72,2.53-3.47,5-5.21,7.56C1.6,17.29.86,18.36.12,19.42c-.09.13-.22.26,0,.38A1.74,1.74,0,0,1,.88,21a1.79,1.79,0,0,0,.27.51c.33.46.88.53,1.33.76a.29.29,0,0,0,.43-.1,1.67,1.67,0,0,1,1-.69c.58-.14.58-.17.93.32.1.15.18.35.43.28a.63.63,0,0,1,.79.42,2,2,0,0,0,.22.41.33.33,0,0,0,.27.09c.39-.09.76-.21,1.15-.31a.46.46,0,0,1,.55.2.82.82,0,0,0,.78.39c.39,0,.45.12.4.51a2.06,2.06,0,0,0,0,.78q2,7.13,4.11,14.23a.86.86,0,0,0,.27.36,1.23,1.23,0,0,0,1,.31,12.89,12.89,0,0,1,1.39,0,1.46,1.46,0,0,0,1-.24.35.35,0,0,1,.49.05A1.1,1.1,0,0,0,19,39.21q5.3-5.53,10.58-11.07a1.42,1.42,0,0,1,.5-.27,2.79,2.79,0,0,0,.74-.24,4.67,4.67,0,0,0,.77-.77.36.36,0,0,0,0-.32c-.15-.36-.38-.7-.5-1.07a.92.92,0,0,1,.14-.63,4.69,4.69,0,0,1,.55-.68,5.79,5.79,0,0,0-.39-.44.47.47,0,0,1-.12-.58C32,21.36,32.57,19.55,33.22,17.76ZM11.9,10.56a6.58,6.58,0,0,1,2.32-1.2,19.84,19.84,0,0,1,6.41-.76,17,17,0,0,1,5,.76,7.75,7.75,0,0,1,2.59,1.32c.45.36.45.36.52,1-5.79-2.62-11.58-2.41-17.4,0A1.37,1.37,0,0,1,11.9,10.56Zm6,21.5a18.07,18.07,0,0,1-.57,3.16,5,5,0,0,1-.72,1.4,14.92,14.92,0,0,1-1,1.35c-.13.16-.22.4-.49.32s-.25-.33-.27-.55c-.16-2.19-.33-4.38-.49-6.56s-.35-4.58-.53-6.87a.44.44,0,0,1,.27-.49A8.07,8.07,0,0,1,16.45,23a5.44,5.44,0,0,0,1.5,2.4.72.72,0,0,1,.14.46C18.06,27.89,18.07,30,18,32.06Zm3.08-6A1.44,1.44,0,0,0,20,26a1.51,1.51,0,0,1-1.28-.21,2.65,2.65,0,0,0,1.52-.23c.08,0,.22,0,.32.05a3.89,3.89,0,0,0,2.52.17A2,2,0,0,1,21,26.09Zm3.68.33-.07-.05c.28-.92.56-1.84.85-2.83l1,.62Zm2.38-2.77-1.36-.77c.25-.75.51-1.49.79-2.31l2.06,1.17A4.66,4.66,0,0,1,27.09,23.65Zm1.73-3.25a6.87,6.87,0,0,1-.08.78l-2-1.07q.13-.37.3-.78a1.26,1.26,0,0,0,0-1.15q-1.12-2.05-2.27-4.1a2.67,2.67,0,0,0-.24-.32c-.39-.47-.56-.49-1.1-.24-.78.37-1.57.72-2.37,1a8.62,8.62,0,0,1-.91.17,2.68,2.68,0,0,0-.77.35.55.55,0,0,0-.11.85,4.3,4.3,0,0,0,2.46,1.59.52.52,0,0,0,.56-.2l.82-1.11c-.12.38-.23.74-.37,1.09s-.14.58.27.83l.16.09c-1.34.18-2.56,1.55-3,3.29,0-.23-.09-.47-.11-.7s-.12-.31-.35-.27c-1,.21-1.93.41-2.89.6a.36.36,0,0,0-.31.41c0,.47-.21.64-.63.78a21.72,21.72,0,0,0-2.05.87.36.36,0,0,1-.43,0,6,6,0,0,1-1.42-1.42,7.5,7.5,0,0,1,2-1.29c.42-.19.87-.3,1.31-.47a.28.28,0,0,1,.38.13,2.07,2.07,0,0,0,1.7.82c.35,0,.52-.36.32-.71a2.33,2.33,0,0,0-.27-.37,3.92,3.92,0,0,1-1.16-2.44c-.81.06-1.14.78-.92,1.95-.63.25-1.29.47-1.89.77s-1.16.68-1.8,1.06a8.62,8.62,0,0,1-.22-1.08,69.85,69.85,0,0,1-.09-7.52.33.33,0,0,1,.25-.33,24.87,24.87,0,0,1,5.61-1.56,22.51,22.51,0,0,1,11.35,1.42.48.48,0,0,1,.36.51C28.82,15.23,28.82,17.81,28.82,20.4Z"/><path class="cls-1" d="M19.52,19.11a3.3,3.3,0,0,1-1.45-1.87c-.1-.35-.17-.71-.27-1.06a.33.33,0,0,0-.23-.19,1.37,1.37,0,0,0-1.22,1.53,5.3,5.3,0,0,0,1.55,2.61,1.57,1.57,0,0,0,1.1.43,1.07,1.07,0,0,0,1-.66C20.21,19.41,19.8,19.3,19.52,19.11Z"/><path class="cls-1" d="M18,15.31a3,3,0,0,0,.2,1.46A4.13,4.13,0,0,0,20,19.18a.94.94,0,0,0,1.51-.41.45.45,0,0,0-.15-.67c-.73-.56-1.45-1.13-2.14-1.74a.91.91,0,0,1,.39-1.67,6.74,6.74,0,0,1,.9-.14v-.08a8,8,0,0,0-1.18-.26A1.23,1.23,0,0,0,18,15.31Z"/><path class="cls-1" d="M21.64,12.77a1.17,1.17,0,0,0-1.19,1.47.32.32,0,0,0,.27.15c.89-.33,1.77-.69,2.64-1V13.2A17.1,17.1,0,0,0,21.64,12.77Z"/></g></g></svg>